<?xml version="1.0" encoding="UTF-8" standalone="no"?>
<!DOCTYPE svg PUBLIC "-//W3C//DTD SVG 1.1//EN"
 "http://www.w3.org/Graphics/SVG/1.1/DTD/svg11.dtd">
<!-- Generated by graphviz version 2.46.0 (0)
 -->
<!-- Title: snakemake_dag Pages: 1 -->
<svg width="526pt" height="476pt"
 viewBox="0.00 0.00 526.00 476.00" xmlns="http://www.w3.org/2000/svg" xmlns:xlink="http://www.w3.org/1999/xlink">
<g id="graph0" class="graph" transform="scale(1 1) rotate(0) translate(4 472)">
<title>snakemake_dag</title>
<polygon fill="white" stroke="transparent" points="-4,4 -4,-472 522,-472 522,4 -4,4"/>
<!-- 0 -->
<g id="node1" class="node">
<title>0</title>
<path fill="none" stroke="#56d8a9" stroke-width="2" d="M251,-36C251,-36 221,-36 221,-36 215,-36 209,-30 209,-24 209,-24 209,-12 209,-12 209,-6 215,0 221,0 221,0 251,0 251,0 257,0 263,-6 263,-12 263,-12 263,-24 263,-24 263,-30 257,-36 251,-36"/>
<text text-anchor="middle" x="236" y="-15.5" font-family="sans" font-size="10.00">all</text>
</g>
<!-- 1 -->
<g id="node2" class="node">
<title>1</title>
<path fill="none" stroke="#56d873" stroke-width="2" d="M206,-108C206,-108 176,-108 176,-108 170,-108 164,-102 164,-96 164,-96 164,-84 164,-84 164,-78 170,-72 176,-72 176,-72 206,-72 206,-72 212,-72 218,-78 218,-84 218,-84 218,-96 218,-96 218,-102 212,-108 206,-108"/>
<text text-anchor="middle" x="191" y="-87.5" font-family="sans" font-size="10.00">LBBC</text>
</g>
<!-- 1&#45;&gt;0 -->
<g id="edge1" class="edge">
<title>1&#45;&gt;0</title>
<path fill="none" stroke="grey" stroke-width="2" d="M202.12,-71.7C207.36,-63.56 213.7,-53.69 219.48,-44.7"/>
<polygon fill="grey" stroke="grey" stroke-width="2" points="222.54,-46.41 225,-36.1 216.65,-42.62 222.54,-46.41"/>
</g>
<!-- 2 -->
<g id="node3" class="node">
<title>2</title>
<path fill="none" stroke="#5692d8" stroke-width="2" d="M290,-180C290,-180 260,-180 260,-180 254,-180 248,-174 248,-168 248,-168 248,-156 248,-156 248,-150 254,-144 260,-144 260,-144 290,-144 290,-144 296,-144 302,-150 302,-156 302,-156 302,-168 302,-168 302,-174 296,-180 290,-180"/>
<text text-anchor="middle" x="275" y="-159.5" font-family="sans" font-size="10.00">mash</text>
</g>
<!-- 2&#45;&gt;0 -->
<g id="edge2" class="edge">
<title>2&#45;&gt;0</title>
<path fill="none" stroke="grey" stroke-width="2" d="M270.3,-143.87C263.62,-119.56 251.33,-74.82 243.42,-46.01"/>
<polygon fill="grey" stroke="grey" stroke-width="2" points="246.74,-44.91 240.72,-36.19 239.99,-46.76 246.74,-44.91"/>
</g>
<!-- 3 -->
<g id="node4" class="node">
<title>3</title>
<path fill="none" stroke="#5692d8" stroke-width="2" d="M42,-180C42,-180 12,-180 12,-180 6,-180 0,-174 0,-168 0,-168 0,-156 0,-156 0,-150 6,-144 12,-144 12,-144 42,-144 42,-144 48,-144 54,-150 54,-156 54,-156 54,-168 54,-168 54,-174 48,-180 42,-180"/>
<text text-anchor="middle" x="27" y="-159.5" font-family="sans" font-size="10.00">mash</text>
</g>
<!-- 3&#45;&gt;0 -->
<g id="edge3" class="edge">
<title>3&#45;&gt;0</title>
<path fill="none" stroke="grey" stroke-width="2" d="M32.4,-143.76C39.51,-123.75 53.91,-91.07 77,-72 112.17,-42.95 163.9,-29.6 198.71,-23.62"/>
<polygon fill="grey" stroke="grey" stroke-width="2" points="199.61,-27.02 208.94,-21.99 198.51,-20.11 199.61,-27.02"/>
</g>
<!-- 4 -->
<g id="node5" class="node">
<title>4</title>
<path fill="none" stroke="#d8cb56" stroke-width="2" d="M348,-252C348,-252 318,-252 318,-252 312,-252 306,-246 306,-240 306,-240 306,-228 306,-228 306,-222 312,-216 318,-216 318,-216 348,-216 348,-216 354,-216 360,-222 360,-228 360,-228 360,-240 360,-240 360,-246 354,-252 348,-252"/>
<text text-anchor="middle" x="333" y="-231.5" font-family="sans" font-size="10.00">kraken</text>
</g>
<!-- 4&#45;&gt;0 -->
<g id="edge4" class="edge">
<title>4&#45;&gt;0</title>
<path fill="none" stroke="grey" stroke-width="2" d="M330.21,-215.84C326.91,-197.59 320.62,-168.09 311,-144 297.34,-109.8 289.06,-103.51 270,-72 264.54,-62.98 258.37,-53.22 252.79,-44.58"/>
<polygon fill="grey" stroke="grey" stroke-width="2" points="255.63,-42.53 247.26,-36.04 249.76,-46.34 255.63,-42.53"/>
</g>
<!-- 5 -->
<g id="node6" class="node">
<title>5</title>
<path fill="none" stroke="#56d873" stroke-width="2" d="M422,-108C422,-108 392,-108 392,-108 386,-108 380,-102 380,-96 380,-96 380,-84 380,-84 380,-78 386,-72 392,-72 392,-72 422,-72 422,-72 428,-72 434,-78 434,-84 434,-84 434,-96 434,-96 434,-102 428,-108 422,-108"/>
<text text-anchor="middle" x="407" y="-87.5" font-family="sans" font-size="10.00">LBBC</text>
</g>
<!-- 5&#45;&gt;0 -->
<g id="edge5" class="edge">
<title>5&#45;&gt;0</title>
<path fill="none" stroke="grey" stroke-width="2" d="M379.9,-77.91C350.97,-66.06 304.95,-47.22 272.76,-34.05"/>
<polygon fill="grey" stroke="grey" stroke-width="2" points="273.83,-30.7 263.25,-30.16 271.18,-37.18 273.83,-30.7"/>
</g>
<!-- 6 -->
<g id="node7" class="node">
<title>6</title>
<path fill="none" stroke="#d8cb56" stroke-width="2" d="M128,-108C128,-108 98,-108 98,-108 92,-108 86,-102 86,-96 86,-96 86,-84 86,-84 86,-78 92,-72 98,-72 98,-72 128,-72 128,-72 134,-72 140,-78 140,-84 140,-84 140,-96 140,-96 140,-102 134,-108 128,-108"/>
<text text-anchor="middle" x="113" y="-87.5" font-family="sans" font-size="10.00">kraken</text>
</g>
<!-- 6&#45;&gt;0 -->
<g id="edge6" class="edge">
<title>6&#45;&gt;0</title>
<path fill="none" stroke="grey" stroke-width="2" d="M140.3,-73.46C157.89,-63.45 180.97,-50.32 200.05,-39.46"/>
<polygon fill="grey" stroke="grey" stroke-width="2" points="201.82,-42.48 208.78,-34.49 198.36,-36.4 201.82,-42.48"/>
</g>
<!-- 7 -->
<g id="node8" class="node">
<title>7</title>
<path fill="none" stroke="#d85656" stroke-width="2" d="M214.5,-180C214.5,-180 147.5,-180 147.5,-180 141.5,-180 135.5,-174 135.5,-168 135.5,-168 135.5,-156 135.5,-156 135.5,-150 141.5,-144 147.5,-144 147.5,-144 214.5,-144 214.5,-144 220.5,-144 226.5,-150 226.5,-156 226.5,-156 226.5,-168 226.5,-168 226.5,-174 220.5,-180 214.5,-180"/>
<text text-anchor="middle" x="181" y="-159.5" font-family="sans" font-size="10.00">max_likelihood</text>
</g>
<!-- 7&#45;&gt;1 -->
<g id="edge7" class="edge">
<title>7&#45;&gt;1</title>
<path fill="none" stroke="grey" stroke-width="2" d="M183.47,-143.7C184.57,-135.98 185.9,-126.71 187.13,-118.11"/>
<polygon fill="grey" stroke="grey" stroke-width="2" points="190.61,-118.5 188.56,-108.1 183.68,-117.51 190.61,-118.5"/>
</g>
<!-- 8 -->
<g id="node9" class="node">
<title>8</title>
<path fill="none" stroke="#d88d56" stroke-width="2" d="M349.5,-324C349.5,-324 316.5,-324 316.5,-324 310.5,-324 304.5,-318 304.5,-312 304.5,-312 304.5,-300 304.5,-300 304.5,-294 310.5,-288 316.5,-288 316.5,-288 349.5,-288 349.5,-288 355.5,-288 361.5,-294 361.5,-300 361.5,-300 361.5,-312 361.5,-312 361.5,-318 355.5,-324 349.5,-324"/>
<text text-anchor="middle" x="333" y="-303.5" font-family="sans" font-size="10.00">sortbam</text>
</g>
<!-- 8&#45;&gt;2 -->
<g id="edge8" class="edge">
<title>8&#45;&gt;2</title>
<path fill="none" stroke="grey" stroke-width="2" d="M318.99,-287.78C311.52,-277.84 302.71,-264.8 297,-252 288.17,-232.19 282.5,-208.26 279.14,-190.2"/>
<polygon fill="grey" stroke="grey" stroke-width="2" points="282.58,-189.57 277.42,-180.32 275.69,-190.77 282.58,-189.57"/>
</g>
<!-- 8&#45;&gt;4 -->
<g id="edge10" class="edge">
<title>8&#45;&gt;4</title>
<path fill="none" stroke="grey" stroke-width="2" d="M333,-287.7C333,-279.98 333,-270.71 333,-262.11"/>
<polygon fill="grey" stroke="grey" stroke-width="2" points="336.5,-262.1 333,-252.1 329.5,-262.1 336.5,-262.1"/>
</g>
<!-- 14 -->
<g id="node15" class="node">
<title>14</title>
<path fill="none" stroke="#56c9d8" stroke-width="2" d="M506,-252C506,-252 390,-252 390,-252 384,-252 378,-246 378,-240 378,-240 378,-228 378,-228 378,-222 384,-216 390,-216 390,-216 506,-216 506,-216 512,-216 518,-222 518,-228 518,-228 518,-240 518,-240 518,-246 512,-252 506,-252"/>
<text text-anchor="middle" x="448" y="-231.5" font-family="sans" font-size="10.00">align_bacterial_reference</text>
</g>
<!-- 8&#45;&gt;14 -->
<g id="edge20" class="edge">
<title>8&#45;&gt;14</title>
<path fill="none" stroke="grey" stroke-width="2" d="M361.13,-287.88C376.17,-278.72 394.87,-267.34 411.06,-257.48"/>
<polygon fill="grey" stroke="grey" stroke-width="2" points="413.04,-260.38 419.76,-252.19 409.4,-254.4 413.04,-260.38"/>
</g>
<!-- 9 -->
<g id="node10" class="node">
<title>9</title>
<path fill="none" stroke="#d88d56" stroke-width="2" d="M98.5,-324C98.5,-324 65.5,-324 65.5,-324 59.5,-324 53.5,-318 53.5,-312 53.5,-312 53.5,-300 53.5,-300 53.5,-294 59.5,-288 65.5,-288 65.5,-288 98.5,-288 98.5,-288 104.5,-288 110.5,-294 110.5,-300 110.5,-300 110.5,-312 110.5,-312 110.5,-318 104.5,-324 98.5,-324"/>
<text text-anchor="middle" x="82" y="-303.5" font-family="sans" font-size="10.00">sortbam</text>
</g>
<!-- 9&#45;&gt;3 -->
<g id="edge9" class="edge">
<title>9&#45;&gt;3</title>
<path fill="none" stroke="grey" stroke-width="2" d="M75.37,-287.87C65.91,-263.46 48.47,-218.43 37.32,-189.64"/>
<polygon fill="grey" stroke="grey" stroke-width="2" points="40.53,-188.25 33.66,-180.19 34.01,-190.78 40.53,-188.25"/>
</g>
<!-- 9&#45;&gt;6 -->
<g id="edge12" class="edge">
<title>9&#45;&gt;6</title>
<path fill="none" stroke="grey" stroke-width="2" d="M84.48,-287.85C89.85,-250.83 102.54,-163.18 109.03,-118.39"/>
<polygon fill="grey" stroke="grey" stroke-width="2" points="112.53,-118.63 110.5,-108.23 105.61,-117.63 112.53,-118.63"/>
</g>
<!-- 11 -->
<g id="node12" class="node">
<title>11</title>
<path fill="none" stroke="#56c9d8" stroke-width="2" d="M238,-252C238,-252 122,-252 122,-252 116,-252 110,-246 110,-240 110,-240 110,-228 110,-228 110,-222 116,-216 122,-216 122,-216 238,-216 238,-216 244,-216 250,-222 250,-228 250,-228 250,-240 250,-240 250,-246 244,-252 238,-252"/>
<text text-anchor="middle" x="180" y="-231.5" font-family="sans" font-size="10.00">align_bacterial_reference</text>
</g>
<!-- 9&#45;&gt;11 -->
<g id="edge17" class="edge">
<title>9&#45;&gt;11</title>
<path fill="none" stroke="grey" stroke-width="2" d="M105.97,-287.88C118.55,-278.89 134.13,-267.76 147.75,-258.03"/>
<polygon fill="grey" stroke="grey" stroke-width="2" points="149.83,-260.85 155.93,-252.19 145.76,-255.15 149.83,-260.85"/>
</g>
<!-- 10 -->
<g id="node11" class="node">
<title>10</title>
<path fill="none" stroke="#d85656" stroke-width="2" d="M460.5,-180C460.5,-180 393.5,-180 393.5,-180 387.5,-180 381.5,-174 381.5,-168 381.5,-168 381.5,-156 381.5,-156 381.5,-150 387.5,-144 393.5,-144 393.5,-144 460.5,-144 460.5,-144 466.5,-144 472.5,-150 472.5,-156 472.5,-156 472.5,-168 472.5,-168 472.5,-174 466.5,-180 460.5,-180"/>
<text text-anchor="middle" x="427" y="-159.5" font-family="sans" font-size="10.00">max_likelihood</text>
</g>
<!-- 10&#45;&gt;5 -->
<g id="edge11" class="edge">
<title>10&#45;&gt;5</title>
<path fill="none" stroke="grey" stroke-width="2" d="M422.06,-143.7C419.83,-135.9 417.15,-126.51 414.67,-117.83"/>
<polygon fill="grey" stroke="grey" stroke-width="2" points="418,-116.76 411.89,-108.1 411.27,-118.68 418,-116.76"/>
</g>
<!-- 11&#45;&gt;7 -->
<g id="edge13" class="edge">
<title>11&#45;&gt;7</title>
<path fill="none" stroke="grey" stroke-width="2" d="M180.25,-215.7C180.36,-207.98 180.49,-198.71 180.61,-190.11"/>
<polygon fill="grey" stroke="grey" stroke-width="2" points="184.11,-190.15 180.76,-180.1 177.11,-190.05 184.11,-190.15"/>
</g>
<!-- 12 -->
<g id="node13" class="node">
<title>12</title>
<path fill="none" stroke="#70d856" stroke-width="2" d="M348,-396C348,-396 318,-396 318,-396 312,-396 306,-390 306,-384 306,-384 306,-372 306,-372 306,-366 312,-360 318,-360 318,-360 348,-360 348,-360 354,-360 360,-366 360,-372 360,-372 360,-384 360,-384 360,-390 354,-396 348,-396"/>
<text text-anchor="middle" x="333" y="-375.5" font-family="sans" font-size="10.00">align</text>
</g>
<!-- 12&#45;&gt;8 -->
<g id="edge14" class="edge">
<title>12&#45;&gt;8</title>
<path fill="none" stroke="grey" stroke-width="2" d="M333,-359.7C333,-351.98 333,-342.71 333,-334.11"/>
<polygon fill="grey" stroke="grey" stroke-width="2" points="336.5,-334.1 333,-324.1 329.5,-334.1 336.5,-334.1"/>
</g>
<!-- 13 -->
<g id="node14" class="node">
<title>13</title>
<path fill="none" stroke="#70d856" stroke-width="2" d="M97,-396C97,-396 67,-396 67,-396 61,-396 55,-390 55,-384 55,-384 55,-372 55,-372 55,-366 61,-360 67,-360 67,-360 97,-360 97,-360 103,-360 109,-366 109,-372 109,-372 109,-384 109,-384 109,-390 103,-396 97,-396"/>
<text text-anchor="middle" x="82" y="-375.5" font-family="sans" font-size="10.00">align</text>
</g>
<!-- 13&#45;&gt;9 -->
<g id="edge15" class="edge">
<title>13&#45;&gt;9</title>
<path fill="none" stroke="grey" stroke-width="2" d="M82,-359.7C82,-351.98 82,-342.71 82,-334.11"/>
<polygon fill="grey" stroke="grey" stroke-width="2" points="85.5,-334.1 82,-324.1 78.5,-334.1 85.5,-334.1"/>
</g>
<!-- 14&#45;&gt;10 -->
<g id="edge16" class="edge">
<title>14&#45;&gt;10</title>
<path fill="none" stroke="grey" stroke-width="2" d="M442.81,-215.7C440.47,-207.9 437.65,-198.51 435.05,-189.83"/>
<polygon fill="grey" stroke="grey" stroke-width="2" points="438.36,-188.68 432.13,-180.1 431.65,-190.69 438.36,-188.68"/>
</g>
<!-- 15 -->
<g id="node16" class="node">
<title>15</title>
<path fill="none" stroke="#afd856" stroke-width="2" d="M371.5,-468C371.5,-468 294.5,-468 294.5,-468 288.5,-468 282.5,-462 282.5,-456 282.5,-456 282.5,-444 282.5,-444 282.5,-438 288.5,-432 294.5,-432 294.5,-432 371.5,-432 371.5,-432 377.5,-432 383.5,-438 383.5,-444 383.5,-444 383.5,-456 383.5,-456 383.5,-462 377.5,-468 371.5,-468"/>
<text text-anchor="middle" x="333" y="-453" font-family="sans" font-size="10.00">trimming</text>
<text text-anchor="middle" x="333" y="-442" font-family="sans" font-size="10.00">sample: sample2</text>
</g>
<!-- 15&#45;&gt;12 -->
<g id="edge18" class="edge">
<title>15&#45;&gt;12</title>
<path fill="none" stroke="grey" stroke-width="2" d="M333,-431.7C333,-423.98 333,-414.71 333,-406.11"/>
<polygon fill="grey" stroke="grey" stroke-width="2" points="336.5,-406.1 333,-396.1 329.5,-406.1 336.5,-406.1"/>
</g>
<!-- 16 -->
<g id="node17" class="node">
<title>16</title>
<path fill="none" stroke="#afd856" stroke-width="2" d="M120.5,-468C120.5,-468 43.5,-468 43.5,-468 37.5,-468 31.5,-462 31.5,-456 31.5,-456 31.5,-444 31.5,-444 31.5,-438 37.5,-432 43.5,-432 43.5,-432 120.5,-432 120.5,-432 126.5,-432 132.5,-438 132.5,-444 132.5,-444 132.5,-456 132.5,-456 132.5,-462 126.5,-468 120.5,-468"/>
<text text-anchor="middle" x="82" y="-453" font-family="sans" font-size="10.00">trimming</text>
<text text-anchor="middle" x="82" y="-442" font-family="sans" font-size="10.00">sample: sample1</text>
</g>
<!-- 16&#45;&gt;13 -->
<g id="edge19" class="edge">
<title>16&#45;&gt;13</title>
<path fill="none" stroke="grey" stroke-width="2" d="M82,-431.7C82,-423.98 82,-414.71 82,-406.11"/>
<polygon fill="grey" stroke="grey" stroke-width="2" points="85.5,-406.1 82,-396.1 78.5,-406.1 85.5,-406.1"/>
</g>
</g>
</svg>
